<svg width="27" height="27" viewBox="0 0 27 27" fill="none" xmlns="http://www.w3.org/2000/svg">
<rect width="27" height="27" rx="5.70302" fill="url(#paint0_linear_8474_160923)"/>
<path d="M11.2531 13.5373C11.2531 12.2936 12.2607 11.2851 13.5041 11.2851C14.7474 11.2851 15.7556 12.2936 15.7556 13.5373C15.7556 14.7809 14.7474 15.7894 13.5041 15.7894C12.2607 15.7894 11.2531 14.7809 11.2531 13.5373ZM10.0359 13.5373C10.0359 15.4533 11.5886 17.0064 13.5041 17.0064C15.4195 17.0064 16.9722 15.4533 16.9722 13.5373C16.9722 11.6212 15.4195 10.0681 13.5041 10.0681C11.5886 10.0681 10.0359 11.6212 10.0359 13.5373ZM16.299 9.93057C16.2989 10.0909 16.3464 10.2477 16.4354 10.381C16.5244 10.5144 16.6509 10.6184 16.799 10.6798C16.9471 10.7412 17.11 10.7573 17.2673 10.7261C17.4245 10.6949 17.5689 10.6177 17.6823 10.5044C17.7957 10.3911 17.873 10.2466 17.9043 10.0894C17.9357 9.93213 17.9197 9.76911 17.8584 9.62095C17.7971 9.47278 17.6933 9.34613 17.56 9.25699C17.4268 9.16785 17.2701 9.12024 17.1098 9.12018H17.1095C16.8946 9.12028 16.6886 9.20568 16.5366 9.35763C16.3846 9.50958 16.2992 9.71564 16.299 9.93057ZM10.7754 19.0365C10.1169 19.0065 9.75901 18.8968 9.52116 18.8041C9.20583 18.6813 8.98084 18.535 8.74428 18.2987C8.50773 18.0624 8.3613 17.8376 8.23908 17.5222C8.14636 17.2843 8.03667 16.9262 8.00674 16.2675C7.974 15.5554 7.96746 15.3415 7.96746 13.5373C7.96746 11.7331 7.97454 11.5198 8.00674 10.8071C8.03673 10.1484 8.14722 9.79097 8.23908 9.55245C8.36184 9.23703 8.50805 9.01197 8.74428 8.77535C8.98051 8.53873 9.20529 8.39226 9.52116 8.27C9.7589 8.17726 10.1169 8.06754 10.7754 8.0376C11.4873 8.00484 11.7012 7.9983 13.5041 7.9983C15.3069 7.9983 15.521 8.00538 16.2335 8.0376C16.892 8.06759 17.2493 8.17812 17.4878 8.27C17.8031 8.39226 18.0281 8.53905 18.2646 8.77535C18.5012 9.01165 18.6471 9.23703 18.7698 9.55245C18.8626 9.79026 18.9722 10.1484 19.0022 10.8071C19.0349 11.5198 19.0415 11.7331 19.0415 13.5373C19.0415 15.3415 19.0349 15.5548 19.0022 16.2675C18.9722 16.9262 18.862 17.2842 18.7698 17.5222C18.6471 17.8376 18.5009 18.0626 18.2646 18.2987C18.0284 18.5348 17.8031 18.6813 17.4878 18.8041C17.25 18.8968 16.892 19.0065 16.2335 19.0365C15.5216 19.0692 15.3077 19.0758 13.5041 19.0758C11.7004 19.0758 11.4871 19.0692 10.7754 19.0365ZM10.7195 6.82216C10.0005 6.85492 9.50916 6.96896 9.08009 7.13597C8.63573 7.30843 8.25956 7.53981 7.88365 7.91523C7.50775 8.29065 7.27703 8.66753 7.10461 9.11202C6.93765 9.54148 6.82365 10.0327 6.7909 10.7519C6.75762 11.4722 6.75 11.7025 6.75 13.5373C6.75 15.372 6.75762 15.6023 6.7909 16.3226C6.82365 17.0419 6.93765 17.533 7.10461 17.9625C7.27703 18.4067 7.5078 18.784 7.88365 19.1593C8.2595 19.5345 8.63573 19.7656 9.08009 19.9385C9.50998 20.1055 10.0005 20.2196 10.7195 20.2523C11.44 20.2851 11.6699 20.2933 13.5041 20.2933C15.3382 20.2933 15.5685 20.2856 16.2886 20.2523C17.0077 20.2196 17.4987 20.1055 17.928 19.9385C18.3721 19.7656 18.7485 19.5347 19.1244 19.1593C19.5004 18.7839 19.7306 18.4067 19.9035 17.9625C20.0704 17.533 20.185 17.0418 20.2172 16.3226C20.2499 15.6017 20.2576 15.372 20.2576 13.5373C20.2576 11.7025 20.2499 11.4722 20.2172 10.7519C20.1845 10.0326 20.0704 9.54121 19.9035 9.11202C19.7306 8.6678 19.4998 8.29124 19.1244 7.91523C18.7491 7.53922 18.3721 7.30843 17.9285 7.13597C17.4987 6.96896 17.0076 6.85438 16.2892 6.82216C15.569 6.78941 15.3388 6.78125 13.5046 6.78125C11.6704 6.78125 11.44 6.78887 10.7195 6.82216Z" fill="white"/>
<defs>
<linearGradient id="paint0_linear_8474_160923" x1="26.4811" y1="27" x2="-0.518939" y2="-7.26764e-07" gradientUnits="userSpaceOnUse">
<stop stop-color="#FBE18A"/>
<stop offset="0.21" stop-color="#FCBB45"/>
<stop offset="0.38" stop-color="#F75274"/>
<stop offset="0.52" stop-color="#D53692"/>
<stop offset="0.74" stop-color="#8F39CE"/>
<stop offset="1" stop-color="#5B4FE9"/>
</linearGradient>
</defs>
</svg>
