<svg width="27" height="27" viewBox="0 0 27 27" fill="none" xmlns="http://www.w3.org/2000/svg">
<rect width="27" height="27" rx="5.70302" fill="#006699"/>
<path d="M10.3949 18.9695V11.676H7.97284V18.9695H10.3952H10.3949ZM9.18439 10.6804C10.0288 10.6804 10.5546 10.1203 10.5546 9.42043C10.5388 8.70458 10.0288 8.16016 9.20045 8.16016C8.37149 8.16016 7.83008 8.70458 7.83008 9.42037C7.83008 10.1203 8.35562 10.6803 9.16852 10.6803H9.1842L9.18439 10.6804ZM11.7356 18.9695H14.1575V14.8969C14.1575 14.6792 14.1733 14.461 14.2373 14.3055C14.4123 13.8698 14.8108 13.4188 15.4801 13.4188C16.3563 13.4188 16.707 14.0875 16.707 15.0681V18.9695H19.1288V14.7876C19.1288 12.5475 17.9341 11.505 16.3406 11.505C15.0341 11.505 14.4603 12.2359 14.1416 12.7337H14.1577V11.6763H11.7357C11.7673 12.3605 11.7355 18.9698 11.7355 18.9698L11.7356 18.9695Z" fill="white"/>
</svg>
