<svg width="27" height="27" viewBox="0 0 27 27" fill="none" xmlns="http://www.w3.org/2000/svg">
<rect width="27" height="27" rx="5.70302" fill="#33CCFF"/>
<path d="M20.201 9.22533C19.7552 9.41736 19.2866 9.55108 18.8066 9.62319C19.031 9.58468 19.3612 9.18041 19.4926 9.01678C19.6923 8.76995 19.8444 8.48818 19.9414 8.18578C19.9414 8.16332 19.9638 8.13123 19.9414 8.11519C19.9301 8.10901 19.9174 8.10577 19.9045 8.10577C19.8916 8.10577 19.879 8.10901 19.8677 8.11519C19.3465 8.39767 18.7918 8.61327 18.2167 8.75689C18.1967 8.76302 18.1754 8.76357 18.155 8.75848C18.1347 8.75339 18.1161 8.74286 18.1013 8.72801C18.0566 8.67467 18.0084 8.62429 17.9571 8.57721C17.7225 8.36688 17.4564 8.19473 17.1685 8.06706C16.7798 7.90746 16.36 7.83835 15.9407 7.86493C15.5339 7.89064 15.1367 7.99986 14.7739 8.18578C14.4166 8.38179 14.1025 8.64808 13.8506 8.96865C13.5857 9.2986 13.3944 9.68151 13.2897 10.0916C13.2033 10.4817 13.1935 10.8849 13.2608 11.2788C13.2608 11.3462 13.2608 11.3558 13.2031 11.3462C10.9175 11.0093 9.04216 10.1975 7.50986 8.45529C7.44254 8.37829 7.40728 8.37829 7.35278 8.45529C6.68601 9.46918 7.00978 11.0734 7.84325 11.8659C7.95545 11.9718 8.07085 12.0745 8.19266 12.1707C7.81052 12.1436 7.43772 12.0399 7.09633 11.8659C7.03222 11.8242 6.99696 11.8467 6.99375 11.9237C6.98466 12.0304 6.98466 12.1378 6.99375 12.2445C7.06064 12.7562 7.26209 13.2408 7.5775 13.649C7.89291 14.0571 8.31097 14.3741 8.78892 14.5675C8.90543 14.6174 9.02683 14.6551 9.15116 14.6798C8.79739 14.7495 8.43455 14.7603 8.07726 14.7119C8.00033 14.6958 7.97147 14.7375 8.00033 14.8113C8.47156 16.0947 9.49416 16.4862 10.2443 16.7044C10.3469 16.7204 10.4494 16.7204 10.5648 16.7461C10.5648 16.7461 10.5648 16.7461 10.5456 16.7653C10.3244 17.1696 9.43005 17.4423 9.01972 17.5835C8.27078 17.8527 7.47226 17.9557 6.6796 17.8851C6.55458 17.8658 6.52572 17.869 6.49367 17.8851C6.46161 17.9011 6.49367 17.9364 6.52893 17.9685C6.68921 18.0744 6.8495 18.1674 7.01619 18.2573C7.51244 18.5282 8.03708 18.7434 8.58055 18.899C11.3951 19.6754 14.5623 19.1043 16.6748 17.0027C18.3354 15.3536 18.9188 13.0787 18.9188 10.8007C18.9188 10.7141 19.0246 10.6627 19.0855 10.6178C19.5056 10.2902 19.876 9.90329 20.185 9.46918C20.2385 9.40447 20.266 9.32208 20.262 9.23817C20.262 9.19004 20.262 9.19966 20.201 9.22533Z" fill="white"/>
</svg>
